{
    "asset" : {
        "generator" : "Khronos glTF Blender I/O v3.4.50",
        "version" : "2.0"
    },
    "extensionsUsed" : [
        "KHR_materials_specular",
        "KHR_materials_ior"
    ],
    "scene" : 0,
    "scenes" : [
        {
            "name" : "Scene",
            "nodes" : [
                0
            ]
        }
    ],
    "nodes" : [
        {
            "mesh" : 0,
            "name" : "phone",
            "scale" : [
                1,
                1,
                0.5287717580795288
            ]
        }
    ],
    "materials" : [
        {
            "doubleSided" : true,
            "name" : "Material.001",
            "pbrMetallicRoughness" : {
                "baseColorFactor" : [
                    0.015996288508176804,
                    0.006512082181870937,
                    0.00802319124341011,
                    1
                ],
                "metallicFactor" : 0.5545454621315002,
                "roughnessFactor" : 0.48181816935539246
            }
        },
        {
            "doubleSided" : true,
            "name" : "Material.010",
            "pbrMetallicRoughness" : {
                "baseColorFactor" : [
                    0,
                    0,
                    0,
                    1
                ],
                "metallicFactor" : 0.6181818246841431,
                "roughnessFactor" : 0
            }
        },
        {
            "doubleSided" : true,
            "name" : "Material.009",
            "pbrMetallicRoughness" : {
                "baseColorFactor" : [
                    0.015996288508176804,
                    0.006512082181870937,
                    0.00802319124341011,
                    1
                ],
                "metallicFactor" : 0.6318181753158569,
                "roughnessFactor" : 0.15000000596046448
            }
        },
        {
            "doubleSided" : true,
            "name" : "Material.008",
            "pbrMetallicRoughness" : {
                "baseColorFactor" : [
                    0.015996288508176804,
                    0.006512082181870937,
                    0.00802319124341011,
                    1
                ],
                "metallicFactor" : 0.5772727131843567,
                "roughnessFactor" : 0.15909090638160706
            }
        },
        {
            "doubleSided" : true,
            "extensions" : {
                "KHR_materials_specular" : {
                    "specularColorFactor" : [
                        0.3125880337570285,
                        0.3125880337570285,
                        0.3125880337570285
                    ]
                },
                "KHR_materials_ior" : {
                    "ior" : 1.4500000476837158
                }
            },
            "name" : "Material.015",
            "pbrMetallicRoughness" : {
                "baseColorFactor" : [
                    0,
                    0,
                    0,
                    1
                ],
                "metallicFactor" : 0.5136363506317139,
                "roughnessFactor" : 0.18636363744735718
            }
        },
        {
            "doubleSided" : true,
            "extensions" : {
                "KHR_materials_specular" : {
                    "specularColorFactor" : [
                        0.3125880337570285,
                        0.3125880337570285,
                        0.3125880337570285
                    ]
                },
                "KHR_materials_ior" : {
                    "ior" : 1.4500000476837158
                }
            },
            "name" : "Material.013",
            "pbrMetallicRoughness" : {
                "baseColorFactor" : [
                    0,
                    0,
                    0,
                    1
                ],
                "metallicFactor" : 0.5136363506317139,
                "roughnessFactor" : 0.18636363744735718
            }
        },
        {
            "doubleSided" : true,
            "extensions" : {
                "KHR_materials_specular" : {
                    "specularColorFactor" : [
                        0.3125880337570285,
                        0.3125880337570285,
                        0.3125880337570285
                    ]
                },
                "KHR_materials_ior" : {
                    "ior" : 1.4500000476837158
                }
            },
            "name" : "Material.012",
            "pbrMetallicRoughness" : {
                "baseColorFactor" : [
                    0,
                    0,
                    0,
                    1
                ],
                "metallicFactor" : 0.5136363506317139,
                "roughnessFactor" : 0.18636363744735718
            }
        },
        {
            "doubleSided" : true,
            "extensions" : {
                "KHR_materials_specular" : {
                    "specularColorFactor" : [
                        0.3125880337570285,
                        0.3125880337570285,
                        0.3125880337570285
                    ]
                },
                "KHR_materials_ior" : {
                    "ior" : 1.4500000476837158
                }
            },
            "name" : "Material.014",
            "pbrMetallicRoughness" : {
                "baseColorFactor" : [
                    0,
                    0,
                    0,
                    1
                ],
                "metallicFactor" : 0.5136363506317139,
                "roughnessFactor" : 0.18636363744735718
            }
        },
        {
            "doubleSided" : true,
            "extensions" : {
                "KHR_materials_specular" : {
                    "specularColorFactor" : [
                        0.3125880337570285,
                        0.3125880337570285,
                        0.3125880337570285
                    ]
                },
                "KHR_materials_ior" : {
                    "ior" : 1.4500000476837158
                }
            },
            "name" : "Material.016",
            "pbrMetallicRoughness" : {
                "baseColorFactor" : [
                    0,
                    0,
                    0,
                    1
                ],
                "metallicFactor" : 0.5136363506317139,
                "roughnessFactor" : 0.18636363744735718
            }
        },
        {
            "doubleSided" : true,
            "emissiveFactor" : [
                1,
                1,
                1
            ],
            "name" : "Material.011",
            "pbrMetallicRoughness" : {
                "baseColorFactor" : [
                    0.800000011920929,
                    0.800000011920929,
                    0.800000011920929,
                    1
                ],
                "metallicFactor" : 0,
                "roughnessFactor" : 0.5
            }
        }
    ],
    "meshes" : [
        {
            "name" : "Cube.001",
            "primitives" : [
                {
                    "attributes" : {
                        "POSITION" : 0,
                        "TEXCOORD_0" : 1,
                        "NORMAL" : 2
                    },
                    "indices" : 3,
                    "material" : 0
                },
                {
                    "attributes" : {
                        "POSITION" : 4,
                        "TEXCOORD_0" : 5,
                        "NORMAL" : 6
                    },
                    "indices" : 7,
                    "material" : 1
                },
                {
                    "attributes" : {
                        "POSITION" : 8,
                        "TEXCOORD_0" : 9,
                        "NORMAL" : 10
                    },
                    "indices" : 11,
                    "material" : 2
                },
                {
                    "attributes" : {
                        "POSITION" : 12,
                        "TEXCOORD_0" : 13,
                        "NORMAL" : 14
                    },
                    "indices" : 11,
                    "material" : 3
                },
                {
                    "attributes" : {
                        "POSITION" : 15,
                        "TEXCOORD_0" : 16,
                        "NORMAL" : 17
                    },
                    "indices" : 18,
                    "material" : 4
                },
                {
                    "attributes" : {
                        "POSITION" : 19,
                        "TEXCOORD_0" : 20,
                        "NORMAL" : 21
                    },
                    "indices" : 22,
                    "material" : 5
                },
                {
                    "attributes" : {
                        "POSITION" : 23,
                        "TEXCOORD_0" : 24,
                        "NORMAL" : 25
                    },
                    "indices" : 18,
                    "material" : 6
                },
                {
                    "attributes" : {
                        "POSITION" : 26,
                        "TEXCOORD_0" : 27,
                        "NORMAL" : 28
                    },
                    "indices" : 22,
                    "material" : 7
                },
                {
                    "attributes" : {
                        "POSITION" : 29,
                        "TEXCOORD_0" : 30,
                        "NORMAL" : 31
                    },
                    "indices" : 22,
                    "material" : 8
                },
                {
                    "attributes" : {
                        "POSITION" : 32,
                        "TEXCOORD_0" : 33,
                        "NORMAL" : 34
                    },
                    "indices" : 35,
                    "material" : 9
                }
            ]
        }
    ],
    "accessors" : [
        {
            "bufferView" : 0,
            "componentType" : 5126,
            "count" : 896,
            "max" : [
                1,
                2.0110764503479004,
                0.09325098991394043
            ],
            "min" : [
                -1,
                -2.0110764503479004,
                -0.09325098991394043
            ],
            "type" : "VEC3"
        },
        {
            "bufferView" : 1,
            "componentType" : 5126,
            "count" : 896,
            "type" : "VEC2"
        },
        {
            "bufferView" : 2,
            "componentType" : 5126,
            "count" : 896,
            "type" : "VEC3"
        },
        {
            "bufferView" : 3,
            "componentType" : 5123,
            "count" : 1332,
            "type" : "SCALAR"
        },
        {
            "bufferView" : 4,
            "componentType" : 5126,
            "count" : 4,
            "max" : [
                0.9574381709098816,
                1.9878811836242676,
                0.08311309665441513
            ],
            "min" : [
                -0.9574381709098816,
                -2.0031957626342773,
                0.08311276882886887
            ],
            "type" : "VEC3"
        },
        {
            "bufferView" : 5,
            "componentType" : 5126,
            "count" : 4,
            "type" : "VEC2"
        },
        {
            "bufferView" : 6,
            "componentType" : 5126,
            "count" : 4,
            "type" : "VEC3"
        },
        {
            "bufferView" : 7,
            "componentType" : 5123,
            "count" : 6,
            "type" : "SCALAR"
        },
        {
            "bufferView" : 8,
            "componentType" : 5126,
            "count" : 24,
            "max" : [
                1.009528636932373,
                0.4448179304599762,
                0.020637398585677147
            ],
            "min" : [
                0.982558012008667,
                0.2503710687160492,
                -0.020637398585677147
            ],
            "type" : "VEC3"
        },
        {
            "bufferView" : 9,
            "componentType" : 5126,
            "count" : 24,
            "type" : "VEC2"
        },
        {
            "bufferView" : 10,
            "componentType" : 5126,
            "count" : 24,
            "type" : "VEC3"
        },
        {
            "bufferView" : 11,
            "componentType" : 5123,
            "count" : 36,
            "type" : "SCALAR"
        },
        {
            "bufferView" : 12,
            "componentType" : 5126,
            "count" : 24,
            "max" : [
                1.009528636932373,
                1.199043869972229,
                0.020637398585677147
            ],
            "min" : [
                0.982558012008667,
                0.7433308362960815,
                -0.020637398585677147
            ],
            "type" : "VEC3"
        },
        {
            "bufferView" : 13,
            "componentType" : 5126,
            "count" : 24,
            "type" : "VEC2"
        },
        {
            "bufferView" : 14,
            "componentType" : 5126,
            "count" : 24,
            "type" : "VEC3"
        },
        {
            "bufferView" : 15,
            "componentType" : 5126,
            "count" : 1690,
            "max" : [
                0.8895958065986633,
                1.9142427444458008,
                -0.08151347935199738
            ],
            "min" : [
                0.6702432036399841,
                1.6949542760849,
                -0.127597376704216
            ],
            "type" : "VEC3"
        },
        {
            "bufferView" : 16,
            "componentType" : 5126,
            "count" : 1690,
            "type" : "VEC2"
        },
        {
            "bufferView" : 17,
            "componentType" : 5126,
            "count" : 1690,
            "type" : "VEC3"
        },
        {
            "bufferView" : 18,
            "componentType" : 5123,
            "count" : 2718,
            "type" : "SCALAR"
        },
        {
            "bufferView" : 19,
            "componentType" : 5126,
            "count" : 1690,
            "max" : [
                0.8895958065986633,
                1.6602866649627686,
                -0.08151347935199738
            ],
            "min" : [
                0.6702432036399841,
                1.4409981966018677,
                -0.127597376704216
            ],
            "type" : "VEC3"
        },
        {
            "bufferView" : 20,
            "componentType" : 5126,
            "count" : 1690,
            "type" : "VEC2"
        },
        {
            "bufferView" : 21,
            "componentType" : 5126,
            "count" : 1690,
            "type" : "VEC3"
        },
        {
            "bufferView" : 22,
            "componentType" : 5123,
            "count" : 2718,
            "type" : "SCALAR"
        },
        {
            "bufferView" : 23,
            "componentType" : 5126,
            "count" : 1690,
            "max" : [
                0.8895958065986633,
                1.414872646331787,
                -0.08151347935199738
            ],
            "min" : [
                0.6702432036399841,
                1.1955841779708862,
                -0.127597376704216
            ],
            "type" : "VEC3"
        },
        {
            "bufferView" : 24,
            "componentType" : 5126,
            "count" : 1690,
            "type" : "VEC2"
        },
        {
            "bufferView" : 25,
            "componentType" : 5126,
            "count" : 1690,
            "type" : "VEC3"
        },
        {
            "bufferView" : 26,
            "componentType" : 5126,
            "count" : 1690,
            "max" : [
                0.6460207104682922,
                1.6602866649627686,
                -0.08151347935199738
            ],
            "min" : [
                0.4266681373119354,
                1.4409981966018677,
                -0.127597376704216
            ],
            "type" : "VEC3"
        },
        {
            "bufferView" : 27,
            "componentType" : 5126,
            "count" : 1690,
            "type" : "VEC2"
        },
        {
            "bufferView" : 28,
            "componentType" : 5126,
            "count" : 1690,
            "type" : "VEC3"
        },
        {
            "bufferView" : 29,
            "componentType" : 5126,
            "count" : 1690,
            "max" : [
                0.6460207104682922,
                1.90683913230896,
                -0.08151347935199738
            ],
            "min" : [
                0.4266681373119354,
                1.687550663948059,
                -0.127597376704216
            ],
            "type" : "VEC3"
        },
        {
            "bufferView" : 30,
            "componentType" : 5126,
            "count" : 1690,
            "type" : "VEC2"
        },
        {
            "bufferView" : 31,
            "componentType" : 5126,
            "count" : 1690,
            "type" : "VEC3"
        },
        {
            "bufferView" : 32,
            "componentType" : 5126,
            "count" : 1690,
            "max" : [
                0.5683132410049438,
                1.337583065032959,
                -0.08151348680257797
            ],
            "min" : [
                0.5043755769729614,
                1.2511624097824097,
                -0.1275973618030548
            ],
            "type" : "VEC3"
        },
        {
            "bufferView" : 33,
            "componentType" : 5126,
            "count" : 1690,
            "type" : "VEC2"
        },
        {
            "bufferView" : 34,
            "componentType" : 5126,
            "count" : 1690,
            "type" : "VEC3"
        },
        {
            "bufferView" : 35,
            "componentType" : 5123,
            "count" : 2718,
            "type" : "SCALAR"
        }
    ],
    "bufferViews" : [
        {
            "buffer" : 0,
            "byteLength" : 10752,
            "byteOffset" : 0,
            "target" : 34962
        },
        {
            "buffer" : 0,
            "byteLength" : 7168,
            "byteOffset" : 10752,
            "target" : 34962
        },
        {
            "buffer" : 0,
            "byteLength" : 10752,
            "byteOffset" : 17920,
            "target" : 34962
        },
        {
            "buffer" : 0,
            "byteLength" : 2664,
            "byteOffset" : 28672,
            "target" : 34963
        },
        {
            "buffer" : 0,
            "byteLength" : 48,
            "byteOffset" : 31336,
            "target" : 34962
        },
        {
            "buffer" : 0,
            "byteLength" : 32,
            "byteOffset" : 31384,
            "target" : 34962
        },
        {
            "buffer" : 0,
            "byteLength" : 48,
            "byteOffset" : 31416,
            "target" : 34962
        },
        {
            "buffer" : 0,
            "byteLength" : 12,
            "byteOffset" : 31464,
            "target" : 34963
        },
        {
            "buffer" : 0,
            "byteLength" : 288,
            "byteOffset" : 31476,
            "target" : 34962
        },
        {
            "buffer" : 0,
            "byteLength" : 192,
            "byteOffset" : 31764,
            "target" : 34962
        },
        {
            "buffer" : 0,
            "byteLength" : 288,
            "byteOffset" : 31956,
            "target" : 34962
        },
        {
            "buffer" : 0,
            "byteLength" : 72,
            "byteOffset" : 32244,
            "target" : 34963
        },
        {
            "buffer" : 0,
            "byteLength" : 288,
            "byteOffset" : 32316,
            "target" : 34962
        },
        {
            "buffer" : 0,
            "byteLength" : 192,
            "byteOffset" : 32604,
            "target" : 34962
        },
        {
            "buffer" : 0,
            "byteLength" : 288,
            "byteOffset" : 32796,
            "target" : 34962
        },
        {
            "buffer" : 0,
            "byteLength" : 20280,
            "byteOffset" : 33084,
            "target" : 34962
        },
        {
            "buffer" : 0,
            "byteLength" : 13520,
            "byteOffset" : 53364,
            "target" : 34962
        },
        {
            "buffer" : 0,
            "byteLength" : 20280,
            "byteOffset" : 66884,
            "target" : 34962
        },
        {
            "buffer" : 0,
            "byteLength" : 5436,
            "byteOffset" : 87164,
            "target" : 34963
        },
        {
            "buffer" : 0,
            "byteLength" : 20280,
            "byteOffset" : 92600,
            "target" : 34962
        },
        {
            "buffer" : 0,
            "byteLength" : 13520,
            "byteOffset" : 112880,
            "target" : 34962
        },
        {
            "buffer" : 0,
            "byteLength" : 20280,
            "byteOffset" : 126400,
            "target" : 34962
        },
        {
            "buffer" : 0,
            "byteLength" : 5436,
            "byteOffset" : 146680,
            "target" : 34963
        },
        {
            "buffer" : 0,
            "byteLength" : 20280,
            "byteOffset" : 152116,
            "target" : 34962
        },
        {
            "buffer" : 0,
            "byteLength" : 13520,
            "byteOffset" : 172396,
            "target" : 34962
        },
        {
            "buffer" : 0,
            "byteLength" : 20280,
            "byteOffset" : 185916,
            "target" : 34962
        },
        {
            "buffer" : 0,
            "byteLength" : 20280,
            "byteOffset" : 206196,
            "target" : 34962
        },
        {
            "buffer" : 0,
            "byteLength" : 13520,
            "byteOffset" : 226476,
            "target" : 34962
        },
        {
            "buffer" : 0,
            "byteLength" : 20280,
            "byteOffset" : 239996,
            "target" : 34962
        },
        {
            "buffer" : 0,
            "byteLength" : 20280,
            "byteOffset" : 260276,
            "target" : 34962
        },
        {
            "buffer" : 0,
            "byteLength" : 13520,
            "byteOffset" : 280556,
            "target" : 34962
        },
        {
            "buffer" : 0,
            "byteLength" : 20280,
            "byteOffset" : 294076,
            "target" : 34962
        },
        {
            "buffer" : 0,
            "byteLength" : 20280,
            "byteOffset" : 314356,
            "target" : 34962
        },
        {
            "buffer" : 0,
            "byteLength" : 13520,
            "byteOffset" : 334636,
            "target" : 34962
        },
        {
            "buffer" : 0,
            "byteLength" : 20280,
            "byteOffset" : 348156,
            "target" : 34962
        },
        {
            "buffer" : 0,
            "byteLength" : 5436,
            "byteOffset" : 368436,
            "target" : 34963
        }
    ],
    "buffers" : [
        {
            "byteLength" : 373872,
            "uri" : "data:application/octet-stream;base64,"
        }
    ]
}
